<svg width="486" height="233" viewBox="0 0 486 233" fill="none" xmlns="http://www.w3.org/2000/svg">
<path d="M439.728 97.9061C435.557 103.744 432.779 111.548 430.653 118.444C429.699 121.534 428.888 124.385 428.134 127.036C427.04 130.883 426.066 134.308 424.952 137.426C424.668 138.221 424.351 139.081 424.014 139.994C422.191 144.93 419.799 151.409 419.068 157.498C419.009 157.992 418.948 158.491 418.886 158.994C418.341 163.438 417.757 168.196 418.11 172.845C418.535 178.463 420.269 183.838 424.148 189.554C427.767 194.889 432.52 198.422 438.12 199.721C443.583 200.989 448.878 199.905 453.341 197.897C462.025 193.99 469.39 185.822 473.148 177.837C476.535 170.639 477.81 164.853 477.557 158.858C477.384 154.731 476.418 150.454 475.477 146.287C475.207 145.092 474.939 143.905 474.692 142.734C473.194 135.615 471.032 125.726 467.144 117.95C465.333 114.328 462.821 112.153 461.016 110.737C460.358 110.22 459.877 109.852 459.514 109.574C458.778 109.01 458.528 108.819 458.279 108.524C458.281 108.51 458.072 108.148 457.726 107.161C457.431 106.32 457.191 105.506 456.91 104.549C456.787 104.132 456.657 103.688 456.51 103.203C456.297 102.499 456.038 101.672 455.74 100.885C455.48 100.198 455.003 99.023 454.219 97.8966C453.672 97.1095 451.344 93.967 446.933 94.0002C442.632 94.0327 440.318 97.0791 439.728 97.9061ZM439.728 97.9061L446.237 102.556L439.728 97.9061ZM452.743 107.211C452.737 107.221 452.724 107.24 452.704 107.267C452.718 107.247 452.733 107.226 452.747 107.206C452.746 107.207 452.745 107.209 452.743 107.211ZM440.715 106.399C440.715 106.398 440.721 106.412 440.734 106.443C440.721 106.415 440.715 106.399 440.715 106.399Z" fill="#2192B1" stroke="black" stroke-width="16" stroke-linecap="round"/>
<path d="M279.728 29.9061C275.557 35.7443 272.779 43.5484 270.653 50.4436C269.699 53.5338 268.888 56.3853 268.134 59.0363C267.04 62.8832 266.066 66.3077 264.952 69.426C264.668 70.2211 264.351 71.0813 264.014 71.9943C262.191 76.9297 259.799 83.4092 259.068 89.4982C259.009 89.9923 258.948 90.491 258.886 90.9937C258.341 95.4379 257.757 100.196 258.11 104.845C258.535 110.463 260.269 115.838 264.148 121.554C267.767 126.889 272.52 130.422 278.12 131.721C283.583 132.989 288.878 131.905 293.341 129.897C302.025 125.99 309.39 117.822 313.148 109.837C316.535 102.639 317.81 96.8529 317.557 90.8575C317.384 86.7309 316.418 82.4536 315.477 78.2874C315.207 77.0917 314.939 75.9052 314.692 74.734C313.194 67.6151 311.032 57.7257 307.144 49.9496C305.333 46.3278 302.821 44.1533 301.016 42.7366C300.358 42.2205 299.877 41.8519 299.514 41.574C298.778 41.0097 298.528 40.8188 298.279 40.5239C298.281 40.5104 298.072 40.1483 297.726 39.1612C297.431 38.3203 297.191 37.5062 296.91 36.5487C296.787 36.132 296.657 35.6881 296.51 35.203C296.297 34.4987 296.038 33.672 295.74 32.8849C295.48 32.1983 295.003 31.023 294.219 29.8966C293.672 29.1095 291.344 25.967 286.933 26.0002C282.632 26.0327 280.318 29.0791 279.728 29.9061ZM279.728 29.9061L286.237 34.556L279.728 29.9061ZM292.743 39.2114C292.737 39.2207 292.724 39.2396 292.704 39.2669C292.718 39.2465 292.733 39.2262 292.747 39.206C292.746 39.207 292.745 39.2089 292.743 39.2114ZM280.715 38.3985C280.715 38.3978 280.721 38.4118 280.734 38.4427C280.721 38.4147 280.715 38.3992 280.715 38.3985Z" fill="#2192B1" stroke="black" stroke-width="16" stroke-linecap="round"/>
<path d="M29.7275 11.9061C25.5574 17.7443 22.7793 25.5484 20.6525 32.4436C19.6994 35.5338 18.8883 38.3853 18.1343 41.0363C17.0401 44.8832 16.0661 48.3077 14.9524 51.426C14.6685 52.2211 14.3509 53.0813 14.0138 53.9943C12.1915 58.9297 9.7991 65.4092 9.06841 71.4982C9.00913 71.9923 8.94794 72.491 8.88625 72.9937C8.34094 77.4379 7.75713 82.1957 8.10951 86.8446C8.53542 92.4635 10.2692 97.8384 14.1477 103.554C17.7675 108.889 22.5197 112.422 28.1196 113.721C33.583 114.989 38.8779 113.905 43.3408 111.897C52.0253 107.99 59.3898 99.8221 63.1475 91.837C66.5347 84.6391 67.8095 78.8529 67.5573 72.8575C67.3837 68.7309 66.4177 64.4536 65.4769 60.2874C65.2068 59.0917 64.9389 57.9052 64.6923 56.734C63.1936 49.6151 61.0318 39.7257 57.1438 31.9496C55.3329 28.3278 52.8206 26.1533 51.0158 24.7366C50.3582 24.2205 49.8771 23.8519 49.5143 23.574C48.7777 23.0097 48.5285 22.8188 48.279 22.5239C48.2814 22.5104 48.0718 22.1483 47.7257 21.1612C47.4308 20.3203 47.1914 19.5062 46.9099 18.5487C46.7874 18.132 46.6568 17.6881 46.5103 17.203C46.2975 16.4987 46.038 15.672 45.74 14.8849C45.48 14.1983 45.0033 13.023 44.2194 11.8966C43.6716 11.1095 41.3441 7.96699 36.9333 8.00024C32.6323 8.03265 30.3183 11.0791 29.7275 11.9061ZM29.7275 11.9061L36.2374 16.556L29.7275 11.9061ZM42.7434 21.2114C42.737 21.2207 42.7238 21.2396 42.7039 21.2669C42.7183 21.2465 42.7328 21.2262 42.7473 21.206C42.7465 21.207 42.7452 21.2089 42.7434 21.2114ZM30.7147 20.3985C30.7148 20.3978 30.7214 20.4118 30.7342 20.4427C30.721 20.4147 30.7146 20.3992 30.7147 20.3985Z" fill="#2192B1" stroke="black" stroke-width="16" stroke-linecap="round"/>
<path d="M147.728 121.906C143.557 127.744 140.779 135.548 138.653 142.444C137.699 145.534 136.888 148.385 136.134 151.036C135.04 154.883 134.066 158.308 132.952 161.426C132.668 162.221 132.351 163.081 132.014 163.994C130.191 168.93 127.799 175.409 127.068 181.498C127.009 181.992 126.948 182.491 126.886 182.994C126.341 187.438 125.757 192.196 126.11 196.845C126.535 202.463 128.269 207.838 132.148 213.554C135.767 218.889 140.52 222.422 146.12 223.721C151.583 224.989 156.878 223.905 161.341 221.897C170.025 217.99 177.39 209.822 181.148 201.837C184.535 194.639 185.81 188.853 185.557 182.858C185.384 178.731 184.418 174.454 183.477 170.287C183.207 169.092 182.939 167.905 182.692 166.734C181.194 159.615 179.032 149.726 175.144 141.95C173.333 138.328 170.821 136.153 169.016 134.737C168.358 134.22 167.877 133.852 167.514 133.574C166.778 133.01 166.528 132.819 166.279 132.524C166.281 132.51 166.072 132.148 165.726 131.161C165.431 130.32 165.191 129.506 164.91 128.549C164.787 128.132 164.657 127.688 164.51 127.203C164.297 126.499 164.038 125.672 163.74 124.885C163.48 124.198 163.003 123.023 162.219 121.897C161.672 121.11 159.344 117.967 154.933 118C150.632 118.033 148.318 121.079 147.728 121.906ZM147.728 121.906L154.237 126.556L147.728 121.906ZM160.743 131.211C160.737 131.221 160.724 131.24 160.704 131.267C160.718 131.247 160.733 131.226 160.747 131.206C160.746 131.207 160.745 131.209 160.743 131.211ZM148.715 130.399C148.715 130.398 148.721 130.412 148.734 130.443C148.721 130.415 148.715 130.399 148.715 130.399Z" fill="#2192B1" stroke="black" stroke-width="16" stroke-linecap="round"/>
</svg>
