<svg width="76" height="123" viewBox="0 0 76 123" fill="none" xmlns="http://www.w3.org/2000/svg">
<path d="M29.7275 11.9061C25.5574 17.7443 22.7793 25.5484 20.6525 32.4436C19.6994 35.5338 18.8883 38.3853 18.1343 41.0363C17.0401 44.8832 16.0661 48.3077 14.9524 51.426C14.6685 52.2211 14.3509 53.0813 14.0138 53.9943C12.1915 58.9297 9.7991 65.4092 9.06841 71.4982C9.00913 71.9923 8.94794 72.491 8.88625 72.9937C8.34094 77.4379 7.75713 82.1957 8.10951 86.8446C8.53542 92.4635 10.2692 97.8384 14.1477 103.554C17.7675 108.889 22.5197 112.422 28.1196 113.721C33.583 114.989 38.8779 113.905 43.3408 111.897C52.0253 107.99 59.3898 99.8221 63.1475 91.837C66.5347 84.6391 67.8095 78.8529 67.5573 72.8575C67.3837 68.7309 66.4177 64.4536 65.4769 60.2874C65.2068 59.0917 64.9389 57.9052 64.6923 56.734C63.1936 49.6151 61.0318 39.7257 57.1438 31.9496C55.3329 28.3278 52.8206 26.1533 51.0158 24.7366C50.3582 24.2205 49.8771 23.8519 49.5143 23.574C48.7777 23.0097 48.5285 22.8188 48.279 22.5239C48.2814 22.5104 48.0718 22.1483 47.7257 21.1612C47.4308 20.3203 47.1914 19.5062 46.9099 18.5487C46.7874 18.132 46.6568 17.6881 46.5103 17.203C46.2975 16.4987 46.038 15.672 45.74 14.8849C45.48 14.1983 45.0033 13.023 44.2194 11.8966C43.6716 11.1095 41.3441 7.96699 36.9333 8.00024C32.6323 8.03265 30.3183 11.0791 29.7275 11.9061ZM29.7275 11.9061L36.2374 16.556L29.7275 11.9061ZM42.7434 21.2114C42.737 21.2207 42.7238 21.2396 42.7039 21.2669C42.7183 21.2465 42.7328 21.2262 42.7473 21.206C42.7465 21.207 42.7452 21.2089 42.7434 21.2114ZM30.7147 20.3985C30.7148 20.3978 30.7214 20.4118 30.7342 20.4427C30.721 20.4147 30.7146 20.3992 30.7147 20.3985Z" fill="#2192B1" stroke="black" stroke-width="16" stroke-linecap="round"/>
</svg>
