<svg width="945" height="504" viewBox="0 0 945 504" fill="none" xmlns="http://www.w3.org/2000/svg">
<path d="M229.697 229.712C255.486 184.549 202.293 56.1866 281.835 41.9728C349.141 29.9454 369.941 118.419 377.198 166.835C378.967 178.636 378.915 167.82 380.763 161.93C387.872 139.27 396.94 115.112 410.843 95.7081C435.844 60.8134 474.905 33.7213 514.45 17.8922C544.5 5.86389 594.435 0.99932 619.84 25.6961C644.354 49.5264 655.233 95.2687 641.898 127.147C629.56 156.641 596.924 172.193 569.262 183.78C537.957 196.894 631.281 154.425 664.625 148.106C709.872 139.53 756.833 136.301 802.768 134.059C838.775 132.301 890.844 126.842 923.977 146.322C967.973 172.187 887.727 243.893 871.394 260.927C829.756 304.355 775.343 339.403 714.089 345.432C690.296 347.774 661.05 337.144 684.678 310.872C752.847 235.076 871.231 373.876 793.856 440.417C744.844 482.566 673.082 493.563 610.259 495.936C569.155 497.488 552.83 470.694 544.752 433.951C542.793 425.04 544.142 376.293 537.622 371.074C533.342 367.647 488.805 421.938 483.925 425.924C452.22 451.824 410.047 461.567 370.068 465.612C351.786 467.462 332.423 470.944 319.713 455.802C300.46 432.866 291.822 399.08 282.726 371.074C280.843 365.276 270.207 326.311 289.856 335.845C311.18 346.191 287.907 363.832 276.487 368.175C226.91 387.028 167.442 388.951 115.172 385.344C77.6921 382.757 41.0197 366.509 20.0314 333.838C11.6208 320.746 2.76631 291.459 11.7874 275.866C40.0012 227.099 104.047 202.506 154.832 190.024C194.902 180.175 223.043 191.036 233.708 233.725" stroke="black" stroke-width="16" stroke-linecap="round"/>
</svg>
