<svg width="122" height="458" viewBox="0 0 122 458" fill="none" xmlns="http://www.w3.org/2000/svg">
<path d="M49.9272 2C50.3647 7.30843 48.7421 18.5698 46.4642 28.7576V51.5513C46.4642 65.3178 45.1188 80.8614 47.3299 94.2205C48.2027 99.4932 48.4094 116.064 50.3119 119.761C51.9308 122.907 61.8837 153.044 63.7789 149.277C64.2426 148.356 74.6344 142.507 75.8992 142.395C87.3966 141.38 99.1102 142.395 110.625 142.395C120.828 142.395 115.723 149.974 115.723 161.665C115.723 173.002 113.278 183.919 111.394 194.699C107.128 219.118 106.347 242.206 96.2921 263.521C89.9448 276.976 83.4347 291.244 78.4964 306.343C73.4169 321.873 64.9278 336.542 60.7008 352.224C55.7796 370.48 46.3928 382.426 40.5003 401.163C38.9739 406.017 36.6427 411.385 34.2076 417.011C32.6292 423.773 30.9033 430.459 28.7647 436.95C27.3166 441.346 23.9551 456.888 23.9551 452.091C23.9551 440.765 29.293 428.365 34.2076 417.011C36.6221 406.667 38.6916 396.145 41.366 385.87C47.2043 363.437 51.0725 338.325 54.1596 314.601C57.0645 292.279 62.1236 271.142 65.5104 249.604C68.229 232.314 68.9733 217.567 68.9733 199.593C68.9733 193.741 70.4601 183.33 65.4142 189.347C61.3699 194.169 57.0322 198.045 53.0053 202.958C46.6718 210.686 37.4796 216.632 30.0152 221.005C23.4818 224.831 15.2331 238.139 8.37183 238.745C-0.467939 239.526 10.6192 190.352 12.7967 184.912C18.3621 171.007 17.1889 158.215 19.1454 143.007C21.2975 126.28 26.892 109.243 30.0152 92.6911C33.5365 74.0297 36.5199 59.7406 42.6165 42.681C43.9449 38.9638 45.2914 34.003 46.4642 28.7576V28.1521C46.4642 20.1668 47.985 8.17565 49.9272 2Z" fill="#FFD500" stroke="black" stroke-width="10" stroke-linecap="round"/>
</svg>
