<svg width="309" height="153" viewBox="0 0 309 153" fill="none" xmlns="http://www.w3.org/2000/svg">
<path d="M286.224 71.6994C286.22 71.7057 286.214 71.7137 286.207 71.7233C286.215 71.7123 286.223 71.7014 286.23 71.6905C286.229 71.6929 286.227 71.6959 286.224 71.6994ZM275.24 70.8202C275.24 70.8221 275.241 70.8241 275.242 70.8261C275.215 70.7645 275.216 70.7563 275.24 70.8202ZM280.95 60.2775C277.246 60.3055 275.285 62.9271 274.838 63.5531L274.838 63.5532C272.045 67.4637 270.246 72.5832 268.926 76.8618C268.302 78.8857 267.791 80.6853 267.324 82.3292C266.667 84.6432 266.097 86.6487 265.423 88.5365C265.26 88.9923 265.073 89.4978 264.871 90.0439C263.748 93.0805 262.158 97.3759 261.674 101.415C261.637 101.718 261.599 102.027 261.56 102.342C261.225 105.065 260.836 108.224 261.071 111.32C261.362 115.164 262.559 118.835 265.158 122.665C267.639 126.321 270.991 128.867 275.043 129.807C278.976 130.72 282.721 129.923 285.773 128.55C291.668 125.898 296.554 120.442 299.055 115.129C301.26 110.443 302.152 106.529 301.979 102.415C301.863 99.6525 301.205 96.7442 300.616 94.1421C300.456 93.4326 300.3 92.7459 300.162 92.0912C299.242 87.721 297.859 81.3347 295.314 76.2441C293.992 73.6005 292.158 72.029 290.952 71.0819C290.551 70.7674 290.351 70.6178 290.198 70.5034C290.043 70.3875 289.937 70.3078 289.719 70.1293C289.711 70.1228 289.703 70.1164 289.696 70.1103C289.664 70.03 289.625 69.927 289.58 69.7984C289.415 69.3282 289.287 68.8933 289.122 68.3299C289.044 68.0646 288.957 67.7708 288.855 67.4314C288.72 66.985 288.543 66.4182 288.333 65.8628C288.156 65.3952 287.789 64.4768 287.157 63.5677C286.731 62.9556 284.75 60.2489 280.95 60.2775Z" fill="#2192B1" stroke="black" stroke-width="14" stroke-linecap="round"/>
<path d="M187.103 29.5732C187.098 29.5795 187.093 29.5875 187.086 29.5971C187.094 29.5861 187.101 29.5752 187.109 29.5643C187.108 29.5667 187.105 29.5697 187.103 29.5732ZM176.119 28.694C176.119 28.6959 176.12 28.6979 176.121 28.6999C176.094 28.6383 176.094 28.6301 176.119 28.694ZM181.829 18.1513C178.125 18.1792 176.164 20.8009 175.717 21.4269L175.717 21.4269C172.924 25.3375 171.125 30.457 169.805 34.7356C169.181 36.7594 168.67 38.5591 168.203 40.203C167.546 42.517 166.976 44.5225 166.302 46.4102C166.139 46.8661 165.952 47.3715 165.75 47.9177C164.627 50.9543 163.037 55.2496 162.552 59.289C162.516 59.5914 162.478 59.9005 162.439 60.2153C162.104 62.9388 161.715 66.0974 161.95 69.1941C162.241 73.0376 163.438 76.7087 166.037 80.539C168.518 84.1945 171.87 86.7408 175.922 87.681C179.855 88.5935 183.599 87.7973 186.652 86.4238C192.547 83.7719 197.433 78.3162 199.934 73.0028C202.139 68.3165 203.031 64.4031 202.858 60.2887C202.742 57.5263 202.084 54.618 201.495 52.0159C201.334 51.3064 201.179 50.6197 201.041 49.9649C200.121 45.5948 198.738 39.2085 196.193 34.1179C194.871 31.4743 193.037 29.9028 191.83 28.9557C191.43 28.6412 191.23 28.4916 191.077 28.3772C190.922 28.2613 190.816 28.1815 190.598 28.0031C190.59 27.9965 190.582 27.9902 190.575 27.984C190.543 27.9037 190.504 27.8008 190.459 27.6722C190.294 27.202 190.166 26.7671 190.001 26.2037C189.923 25.9384 189.836 25.6446 189.734 25.3052C189.599 24.8587 189.422 24.292 189.212 23.7366C189.035 23.269 188.668 22.3506 188.036 21.4415C187.61 20.8293 185.629 18.1227 181.829 18.1513Z" fill="#2192B1" stroke="black" stroke-width="14" stroke-linecap="round"/>
<path d="M32.2269 18.4221C32.2225 18.4283 32.2168 18.4363 32.2099 18.446C32.2177 18.435 32.2255 18.424 32.2333 18.4131C32.2316 18.4156 32.2294 18.4185 32.2269 18.4221ZM21.2427 17.5429C21.2434 17.5448 21.2441 17.5467 21.2449 17.5487C21.2182 17.4872 21.2185 17.4789 21.2427 17.5429ZM26.9529 7.00021C23.2492 7.02812 21.2882 9.64974 20.841 10.2758L20.841 10.2758C18.0478 14.1864 16.2488 19.3059 14.9291 23.5845C14.3048 25.6083 13.7938 27.408 13.327 29.0519C12.6698 31.3659 12.1003 33.3713 11.4261 35.2591C11.2633 35.715 11.0763 36.2204 10.8742 36.7666C9.75058 39.8032 8.16117 44.0985 7.67645 48.1379C7.64015 48.4403 7.60209 48.7494 7.56332 49.0642C7.22794 51.7877 6.83896 54.9463 7.07369 58.043C7.36502 61.8865 8.562 65.5576 11.1612 69.3879C13.6417 73.0434 16.9938 75.5896 21.0462 76.5298C24.9792 77.4424 28.7234 76.6461 31.7763 75.2727C37.6709 72.6208 42.5571 67.1651 45.0575 61.8517C47.2628 57.1653 48.1552 53.252 47.9821 49.1376C47.8659 46.3752 47.2078 43.4668 46.619 40.8648C46.4585 40.1553 46.3031 39.4686 46.1652 38.8138C45.2452 34.4436 43.8623 28.0574 41.317 22.9668C39.9952 20.3232 38.1611 18.7517 36.9544 17.8046C36.5538 17.4901 36.354 17.3405 36.2012 17.2261C36.0464 17.1102 35.9399 17.0304 35.7217 16.8519C35.7137 16.8454 35.706 16.8391 35.6985 16.8329C35.6669 16.7526 35.6281 16.6496 35.583 16.5211C35.4182 16.0509 35.2903 15.616 35.1247 15.0526C35.0467 14.7873 34.9604 14.4935 34.8579 14.1541C34.723 13.7076 34.5459 13.1409 34.3356 12.5854C34.1585 12.1179 33.7924 11.1994 33.1597 10.2904C32.7337 9.67821 30.7526 6.97157 26.9529 7.00021Z" fill="#2192B1" stroke="black" stroke-width="14" stroke-linecap="round"/>
<path d="M105.329 86.5676C105.324 86.5738 105.318 86.5818 105.312 86.5915C105.319 86.5805 105.327 86.5695 105.335 86.5586C105.333 86.5611 105.331 86.564 105.329 86.5676ZM94.3442 85.6884C94.345 85.6903 94.3457 85.6922 94.3464 85.6942C94.3197 85.6327 94.32 85.6245 94.3442 85.6884ZM100.054 75.1457C96.3508 75.1736 94.3898 77.7953 93.9426 78.4213L93.9426 78.4213C91.1493 82.3319 89.3503 87.4514 88.0306 91.73C87.4064 93.7538 86.8954 95.5535 86.4285 97.1974C85.7714 99.5114 85.2019 101.517 84.5277 103.405C84.3649 103.861 84.1779 104.366 83.9758 104.912C82.8521 107.949 81.2627 112.244 80.778 116.283C80.7417 116.586 80.7037 116.895 80.6649 117.21C80.3295 119.933 79.9405 123.092 80.1753 126.189C80.4666 130.032 81.6636 133.703 84.2627 137.533C86.7432 141.189 90.0953 143.735 94.1477 144.675C98.0807 145.588 101.825 144.792 104.878 143.418C110.772 140.766 115.659 135.311 118.159 129.997C120.364 125.311 121.257 121.397 121.084 117.283C120.967 114.521 120.309 111.612 119.721 109.01C119.56 108.301 119.405 107.614 119.267 106.959C118.347 102.589 116.964 96.2029 114.419 91.1123C113.097 88.4687 111.263 86.8972 110.056 85.9501C109.655 85.6356 109.456 85.486 109.303 85.3716C109.148 85.2557 109.041 85.1759 108.823 84.9974C108.815 84.9909 108.808 84.9846 108.8 84.9784C108.768 84.8981 108.73 84.7952 108.685 84.6666C108.52 84.1964 108.392 83.7615 108.226 83.1981C108.148 82.9328 108.062 82.639 107.959 82.2996C107.825 81.8531 107.647 81.2864 107.437 80.7309C107.26 80.2634 106.894 79.3449 106.261 78.4359C105.835 77.8237 103.854 75.1171 100.054 75.1457Z" fill="#2192B1" stroke="black" stroke-width="14" stroke-linecap="round"/>
</svg>
