<svg width="807" height="744" viewBox="0 0 807 744" fill="none" xmlns="http://www.w3.org/2000/svg">
<path d="M340.461 522.334C332.402 518.269 320.291 518.296 307.153 511.09C274.065 492.943 229.407 471.251 226.473 430.885C225.814 421.819 224.113 412.841 221.836 403.976C218.628 391.489 221.353 378.483 222.533 365.817C225.275 336.376 232.093 309.653 242.481 282.022C253.5 252.714 279.371 235.801 305.884 221.561C333.216 206.882 366.554 199.397 397.377 202.268C430.478 205.351 466.866 209.777 497.212 224.939C525.145 238.895 550.443 261.24 563.838 290.65C576.978 319.501 574.275 351.149 571.393 382.093C568.504 413.111 560.261 440.89 543.766 467.803C525.876 496.992 508.577 517.451 474.536 528.51C452.957 535.52 426.318 544.533 403.594 542.417C380.522 540.268 360.979 532.681 340.461 522.334Z" fill="#FFD400" stroke="black" stroke-width="16" stroke-linecap="round"/>
<path d="M190.21 235.02C179.365 234.034 169.448 225.114 162.414 217.376C153.915 208.027 142.904 202.928 133.638 194.691C127.587 189.313 122.493 182.294 115.854 177.608C113.407 175.881 97.4832 165.705 103.251 165.705" stroke="black" stroke-width="47" stroke-linecap="round"/>
<path d="M190.21 235.02C179.365 234.034 169.448 225.114 162.414 217.376C153.915 208.027 142.904 202.928 133.638 194.691C127.587 189.313 122.493 182.294 115.854 177.608C113.407 175.881 97.4832 165.705 103.251 165.705" stroke="#FFD400" stroke-width="16" stroke-linecap="round"/>
<path d="M638.388 385C646.883 385 655.536 386.633 663.976 387.943C676.346 389.864 687.409 398.907 699.199 403.614C718.921 411.488 739.106 416.582 759.116 422.743C766.955 425.157 776.187 428.969 783.388 434" stroke="black" stroke-width="47" stroke-linecap="round"/>
<path d="M638.388 385C646.883 385 655.536 386.633 663.976 387.943C676.346 389.864 687.409 398.907 699.199 403.614C718.921 411.488 739.106 416.582 759.116 422.743C766.955 425.157 776.187 428.969 783.388 434" stroke="#FFD400" stroke-width="16" stroke-linecap="round"/>
<path d="M296.388 188C296.388 175.69 279.382 163.439 272.091 155.782C261.407 144.564 246.484 132.584 239.281 118.537C235.153 110.487 232.638 99.5615 227.398 92.8372C221.607 85.4041 216.301 78.1784 213.388 69" stroke="black" stroke-width="47" stroke-linecap="round"/>
<path d="M296.388 188C296.388 175.69 279.382 163.439 272.091 155.782C261.407 144.564 246.484 132.584 239.281 118.537C235.153 110.487 232.638 99.5615 227.398 92.8372C221.607 85.4041 216.301 78.1784 213.388 69" stroke="#FFD400" stroke-width="16" stroke-linecap="round"/>
<path d="M379.388 165.689C379.388 154.425 382.032 144.18 384.052 133.184C386.001 122.575 385.947 111.854 385.947 101.117C385.947 82.4115 385.947 63.7058 385.947 45" stroke="black" stroke-width="47" stroke-linecap="round"/>
<path d="M379.388 165.689C379.388 154.425 382.032 144.18 384.052 133.184C386.001 122.575 385.947 111.854 385.947 101.117C385.947 82.4115 385.947 63.7058 385.947 45" stroke="#FFD400" stroke-width="16" stroke-linecap="round"/>
<path d="M467.388 181.42C475.088 166.019 484.851 151.383 492.021 135.797C498.756 121.156 498.073 106.463 500.912 90.9763C504.977 68.8044 512.133 43.44 523.796 24" stroke="black" stroke-width="47" stroke-linecap="round"/>
<path d="M467.388 181.42C475.088 166.019 484.851 151.383 492.021 135.797C498.756 121.156 498.073 106.463 500.912 90.9763C504.977 68.8044 512.133 43.44 523.796 24" stroke="#FFD400" stroke-width="16" stroke-linecap="round"/>
<path d="M557.388 223.431C565.647 209.665 582.255 198.27 594.775 188.74C610.225 176.98 627.944 167.157 641.053 152.592C651.729 140.73 658.689 126.49 670.205 115.204C679.586 106.011 688.46 96.2934 697.754 87" stroke="black" stroke-width="47" stroke-linecap="round"/>
<path d="M557.388 223.431C565.647 209.665 582.255 198.27 594.775 188.74C610.225 176.98 627.944 167.157 641.053 152.592C651.729 140.73 658.689 126.49 670.205 115.204C679.586 106.011 688.46 96.2934 697.754 87" stroke="#FFD400" stroke-width="16" stroke-linecap="round"/>
<path d="M600.388 286C609.713 281.366 618.245 276.88 628.117 273.24C643.358 267.62 658.811 262.021 674.391 257.417C691.444 252.377 707.921 246.285 725.229 242.104C731.536 240.58 737.931 238.953 744.4 238.248C747.247 237.937 750.181 238.462 752.388 237" stroke="black" stroke-width="47" stroke-linecap="round"/>
<path d="M600.388 286C609.713 281.366 618.245 276.88 628.117 273.24C643.358 267.62 658.811 262.021 674.391 257.417C691.444 252.377 707.921 246.285 725.229 242.104C731.536 240.58 737.931 238.953 744.4 238.248C747.247 237.937 750.181 238.462 752.388 237" stroke="#FFD400" stroke-width="16" stroke-linecap="round"/>
<path d="M600.717 508.734C611.598 509.171 621.952 517.578 629.369 524.951C638.33 533.859 649.584 538.395 659.254 546.153C665.569 551.219 671.011 557.972 677.878 562.316C680.409 563.918 696.827 573.276 691.066 573.567" stroke="black" stroke-width="47" stroke-linecap="round"/>
<path d="M600.717 508.734C611.598 509.171 621.952 517.578 629.369 524.951C638.33 533.859 649.584 538.395 659.254 546.153C665.569 551.219 671.011 557.972 677.878 562.316C680.409 563.918 696.827 573.276 691.066 573.567" stroke="#FFD400" stroke-width="16" stroke-linecap="round"/>
<path d="M171.511 341.515C163.017 341.632 154.342 340.119 145.885 338.925C133.49 337.175 122.303 328.285 110.449 323.74C90.6207 316.138 70.3675 311.322 50.275 305.438C42.4037 303.132 33.1193 299.447 25.8504 294.516" stroke="black" stroke-width="47" stroke-linecap="round"/>
<path d="M171.511 341.515C163.017 341.632 154.342 340.119 145.885 338.925C133.49 337.175 122.303 328.285 110.449 323.74C90.6207 316.138 70.3675 311.322 50.275 305.438C42.4037 303.132 33.1193 299.447 25.8504 294.516" stroke="#FFD400" stroke-width="16" stroke-linecap="round"/>
<path d="M504.56 580C503.261 592.241 518.878 606.218 525.321 614.602C534.761 626.886 548.336 640.373 554.016 655.103C557.271 663.543 558.619 674.673 563.12 681.913C568.095 689.916 572.608 697.661 574.536 707.096" stroke="black" stroke-width="47" stroke-linecap="round"/>
<path d="M504.56 580C503.261 592.241 518.878 606.218 525.321 614.602C534.761 626.886 548.336 640.373 554.016 655.103C557.271 663.543 558.619 674.673 563.12 681.913C568.095 689.916 572.608 697.661 574.536 707.096" stroke="#FFD400" stroke-width="16" stroke-linecap="round"/>
<path d="M409.261 595.692C408.072 606.894 404.361 616.801 401.192 627.523C398.134 637.867 397.056 648.534 395.923 659.211C393.949 677.812 391.974 696.413 390 715.014" stroke="black" stroke-width="47" stroke-linecap="round"/>
<path d="M409.261 595.692C408.072 606.894 404.361 616.801 401.192 627.523C398.134 637.867 397.056 648.534 395.923 659.211C393.949 677.812 391.974 696.413 390 715.014" stroke="#FFD400" stroke-width="16" stroke-linecap="round"/>
<path d="M311.709 568.954C302.426 583.456 291.173 596.979 282.398 611.722C274.156 625.57 273.284 640.253 268.826 655.354C262.443 676.973 252.651 701.44 239 719.541" stroke="black" stroke-width="47" stroke-linecap="round"/>
<path d="M311.709 568.954C302.426 583.456 291.173 596.979 282.398 611.722C274.156 625.57 273.284 640.253 268.826 655.354C262.443 676.973 252.651 701.44 239 719.541" stroke="#FFD400" stroke-width="16" stroke-linecap="round"/>
<path d="M222.787 531.696C214.326 542.306 198.817 550.235 187.038 556.985C172.504 565.316 156.172 571.853 143.415 582.698C133.027 591.529 125.652 602.643 114.585 610.926C105.57 617.674 96.9481 624.898 87.9999 631.736" stroke="black" stroke-width="47" stroke-linecap="round"/>
<path d="M222.787 531.696C214.326 542.306 198.817 550.235 187.038 556.985C172.504 565.316 156.172 571.853 143.415 582.698C133.027 591.529 125.652 602.643 114.585 610.926C105.57 617.674 96.9481 624.898 87.9999 631.736" stroke="#FFD400" stroke-width="16" stroke-linecap="round"/>
<path d="M180.323 450.044C170.561 453.668 161.602 457.228 151.401 459.806C135.653 463.785 119.695 467.723 103.716 470.656C86.2268 473.867 69.1983 478.186 51.5461 480.517C45.1133 481.367 38.5825 482.31 32.075 482.329C29.2109 482.337 26.3484 481.505 24 482.726" stroke="black" stroke-width="47" stroke-linecap="round"/>
<path d="M180.323 450.044C170.561 453.668 161.602 457.228 151.401 459.806C135.653 463.785 119.695 467.723 103.716 470.656C86.2268 473.867 69.1983 478.186 51.5461 480.517C45.1133 481.367 38.5825 482.31 32.075 482.329C29.2109 482.337 26.3484 481.505 24 482.726" stroke="#FFD400" stroke-width="16" stroke-linecap="round"/>
</svg>
